<?xml version="1.0" standalone="no"?>
<!DOCTYPE svg PUBLIC "-//W3C//DTD SVG 20010904//EN"
 "http://www.w3.org/TR/2001/REC-SVG-20010904/DTD/svg10.dtd">
<svg version="1.0" xmlns="http://www.w3.org/2000/svg"
 viewBox="0 0 2600.000000 2600.000000"
 preserveAspectRatio="xMidYMid meet">
<metadata>
Created by potrace 1.15, written by Peter Selinger 2001-2017
</metadata>
<g transform="translate(0.000000,2600.000000) scale(0.100000,-0.100000)"
fill="#FF003D" stroke="none">
<path d="M11645 22209 c-1180 -70 -2334 -401 -3362 -965 -1003 -551 -1891
-1323 -2570 -2236 -162 -218 -214 -293 -345 -498 -736 -1158 -1149 -2452
-1229 -3845 -15 -254 -6 -849 15 -1085 51 -557 142 -1050 286 -1545 730 -2523
2650 -4525 5136 -5354 193 -64 531 -161 666 -191 31 -7 59 -18 61 -24 31 -79
1791 -4385 1797 -4396 6 -10 12 -5 22 20 8 19 414 1014 902 2210 l888 2176
167 42 c1904 481 3569 1660 4668 3307 692 1036 1140 2256 1282 3485 41 358 46
456 46 935 0 448 -4 554 -36 845 -198 1846 -1032 3559 -2362 4857 -1399 1364
-3183 2149 -5142 2263 -197 11 -687 11 -890 -1z m1000 -1264 c1158 -95 2234
-470 3195 -1113 746 -500 1379 -1137 1875 -1887 635 -960 1002 -2030 1097
-3200 16 -205 16 -814 0 -1005 -53 -606 -157 -1116 -336 -1645 -281 -831 -705
-1572 -1289 -2255 -144 -168 -578 -594 -752 -739 -629 -523 -1283 -901 -2035
-1175 -336 -123 -691 -218 -1121 -300 l-272 -51 -451 -1104 c-248 -607 -452
-1099 -453 -1095 -2 5 -205 502 -451 1104 l-447 1095 -225 42 c-754 142 -1295
321 -1905 628 -1585 800 -2789 2194 -3350 3880 -379 1139 -445 2372 -189 3550
306 1413 1082 2713 2184 3661 905 778 2004 1307 3155 1518 323 59 604 91 990
110 135 7 602 -5 780 -19z"/>
<path d="M11780 15849 l0 -3261 -28 5 c-235 47 -552 27 -820 -53 -358 -106
-665 -291 -918 -552 -417 -431 -513 -978 -239 -1363 127 -178 342 -316 593
-381 140 -36 258 -47 422 -41 508 20 990 226 1335 572 255 255 405 540 477
910 l22 110 3 2238 c3 1685 6 2237 15 2237 25 0 241 -114 333 -176 450 -300
736 -751 831 -1309 26 -152 24 -469 -4 -645 -71 -436 -202 -801 -546 -1520
-75 -156 -136 -288 -136 -292 0 -4 168 -8 373 -8 l372 1 89 146 c492 811 733
1478 776 2151 53 820 -330 1578 -1185 2350 -201 181 -370 348 -464 457 -315
366 -496 729 -566 1138 -10 55 -19 184 -22 320 l-6 227 -353 0 -354 0 0 -3261z"/>
</g>
</svg>
